HIERARCHY
ROOT Hips
{
 OFFSET 0.000000 0.000000 0.000000
 CHANNELS 6 Xposition Yposition Zposition Yrotation Xrotation Zrotation
 JOINT Chest
 {
  OFFSET 0.000000 9.585900 0.002600
  CHANNELS 3 Yrotation Xrotation Zrotation
  JOINT Chest2
  {
   OFFSET 0.000000 9.601200 -0.005300
   CHANNELS 3 Yrotation Xrotation Zrotation
   JOINT Chest3
   {
    OFFSET 0.000000 9.561800 0.000000
    CHANNELS 3 Yrotation Xrotation Zrotation
    JOINT Chest4
    {
     OFFSET 0.000000 9.552100 0.000000
     CHANNELS 3 Yrotation Xrotation Zrotation
     JOINT Neck
     {
      OFFSET 0.000000 14.453000 0.000000
      CHANNELS 3 Yrotation Xrotation Zrotation
      JOINT Head
      {
       OFFSET 0.000000 8.936500 -0.011300
       CHANNELS 3 Yrotation Xrotation Zrotation
       End Site
       {
        OFFSET 0.000000 17.073600 -0.006000
       }
      }
     }
     JOINT RightCollar
     {
      OFFSET -2.921100 9.558500 0.000000
      CHANNELS 3 Yrotation Xrotation Zrotation
      JOINT RightShoulder
      {
       OFFSET -13.519700 0.000000 0.000000
       CHANNELS 3 Yrotation Xrotation Zrotation
       JOINT RightElbow
       {
        OFFSET 0.000000 -29.696600 0.000000
        CHANNELS 3 Yrotation Xrotation Zrotation
        JOINT RightWrist
        {
         OFFSET 0.000000 -24.004700 0.000000
         CHANNELS 3 Yrotation Xrotation Zrotation
         End Site
         {
          OFFSET 0.000000 -17.728500 0.000000
         }
        }
       }
      }
     }
     JOINT LeftCollar
     {
      OFFSET 2.921100 9.558500 0.000000
      CHANNELS 3 Yrotation Xrotation Zrotation
      JOINT LeftShoulder
      {
       OFFSET 13.519700 0.000000 0.000000
       CHANNELS 3 Yrotation Xrotation Zrotation
       JOINT LeftElbow
       {
        OFFSET 0.000000 -29.696600 0.000000
        CHANNELS 3 Yrotation Xrotation Zrotation
        JOINT LeftWrist
        {
         OFFSET 0.000000 -24.004700 0.000000
         CHANNELS 3 Yrotation Xrotation Zrotation
         End Site
         {
          OFFSET 0.000000 -17.728500 0.000000
         }
        }
       }
      }
     }
    }
   }
  }
 }
 JOINT RightHip
 {
  OFFSET -7.771700 -0.012900 -0.001300
  CHANNELS 3 Yrotation Xrotation Zrotation
  JOINT RightKnee
  {
   OFFSET 0.000000 -40.869800 0.001200
   CHANNELS 3 Yrotation Xrotation Zrotation
   JOINT RightAnkle
   {
    OFFSET 0.000000 -39.717900 0.002100
    CHANNELS 3 Yrotation Xrotation Zrotation
    JOINT RightToe
    {
     OFFSET 0.000000 -4.965400 11.033500
     CHANNELS 3 Yrotation Xrotation Zrotation
     End Site
     {
      OFFSET 0.000000 -1.423100 5.872300
     }
    }
   }
  }
 }
 JOINT LeftHip
 {
  OFFSET 7.771700 -0.012900 -0.001300
  CHANNELS 3 Yrotation Xrotation Zrotation
  JOINT LeftKnee
  {
   OFFSET 0.000000 -40.869800 0.001200
   CHANNELS 3 Yrotation Xrotation Zrotation
   JOINT LeftAnkle
   {
    OFFSET 0.000000 -39.717900 0.002100
    CHANNELS 3 Yrotation Xrotation Zrotation
    JOINT LeftToe
    {
     OFFSET 0.000000 -4.965400 11.033500
     CHANNELS 3 Yrotation Xrotation Zrotation
     End Site
     {
      OFFSET 0.000000 -1.423100 5.872300
     }
    }
   }
  }
 }
}
MOTION
Frames: 15
Frame Time: 0.008333
-78.023223 49.082139 19.189272 178.911919 -30.907842 -3.771307 -1.140974 19.858048 1.946927 -0.187963 2.451365 0.253275 -0.289673 4.027730 0.406864 -1.036455 17.093604 1.618282 3.887633 15.614602 -2.725024 8.226356 -6.490566 -6.478802 -1.195177 -3.621598 -4.499862 4.777667 -8.737541 -12.280109 -38.927921 -48.433745 89.324457 4.284262 6.013691 -12.851799 0.334292 -3.640613 1.904199 -6.995868 -2.291973 13.544929 69.885187 -66.371805 -107.458049 5.508047 10.024901 10.814610 -0.261444 -54.018060 -9.901629 -179.700366 82.693478 -168.173300 -25.763587 -3.003015 -3.278096 -0.161420 -10.767020 1.673682 -11.840468 -55.671633 17.294080 -71.469101 64.539921 -77.648381 30.881191 6.799875 17.787989 0.000918 -0.077296 0.018669
-78.019344 49.083280 19.193308 178.905074 -30.921204 -3.792858 -1.120314 19.870639 1.973795 -0.181746 2.455126 0.250362 -0.287611 4.028923 0.406846 -1.034605 17.092642 1.622762 3.892850 15.625117 -2.729082 8.222867 -6.488914 -6.478671 -1.202074 -3.631475 -4.498614 4.774352 -8.720611 -12.291333 -38.928097 -48.436849 89.347086 4.284029 5.988738 -12.848230 0.330084 -3.639625 1.900096 -6.963766 -2.283005 13.541726 69.938822 -66.381692 -107.528198 5.496049 10.037490 10.792980 -0.293184 -54.005350 -9.858260 -179.695678 82.701200 -168.159450 -25.775136 -2.996188 -3.285807 -0.156594 -10.772271 1.669522 -11.844222 -55.658622 17.329772 -71.467508 64.538404 -77.645417 30.883332 6.830846 17.797449 0.003732 -0.105788 0.018695
-78.019381 49.083771 19.197362 178.904195 -30.928741 -3.793284 -1.117626 19.877423 1.974873 -0.177771 2.453966 0.249974 -0.286408 4.030160 0.406878 -1.033584 17.095193 1.624584 3.900431 15.637384 -2.731837 8.222277 -6.485698 -6.482649 -1.204300 -3.638551 -4.499452 4.774325 -8.706064 -12.305197 -38.926644 -48.435400 89.365208 4.286172 5.963017 -12.845325 0.348273 -3.636807 1.893901 -6.949723 -2.276921 13.534682 69.975430 -66.391709 -107.581608 5.469487 10.008209 10.748304 -0.294124 -53.997435 -9.859501 -179.705741 82.708981 -168.163381 -25.782985 -2.991542 -3.290894 -0.158498 -10.773208 1.667417 -11.833367 -55.653466 17.328326 -71.464549 64.538133 -77.642713 30.881300 6.835932 17.802997 0.023163 -0.102822 0.011936
-78.019024 49.084145 19.201133 178.903936 -30.935176 -3.795539 -1.114687 19.881206 1.977772 -0.177084 2.455000 0.250164 -0.285373 4.031761 0.407238 -1.034821 17.095964 1.624768 3.910369 15.651451 -2.731698 8.237079 -6.461767 -6.496490 -1.200413 -3.642081 -4.502765 4.772397 -8.693359 -12.316270 -38.940132 -48.433811 89.398097 4.288131 5.948815 -12.852493 0.350063 -3.637587 1.893592 -6.917688 -2.267893 13.520109 69.994422 -66.399382 -107.615065 5.458555 10.002477 10.713983 -0.297357 -53.990906 -9.858294 -179.771106 82.718840 -168.221058 -25.801429 -2.984749 -3.292615 -0.124823 -10.777610 1.655401 -11.827140 -55.649354 17.331331 -71.457217 64.537245 -77.637894 30.890516 6.843992 17.807733 0.019768 -0.107781 0.012115
-78.019493 49.083831 19.205392 178.906644 -30.935542 -3.793603 -1.117538 19.880204 1.976973 -0.178075 2.454858 0.251047 -0.284061 4.033070 0.407625 -1.033318 17.097062 1.628380 3.916271 15.666999 -2.736893 8.249847 -6.437201 -6.508006 -1.194985 -3.646826 -4.512173 4.763852 -8.676671 -12.325882 -38.956798 -48.428236 89.434424 4.295760 5.941502 -12.864520 0.358122 -3.639409 1.891398 -6.897679 -2.262113 13.499461 69.999364 -66.407577 -107.635424 5.453906 9.997338 10.685612 -0.297841 -53.990223 -9.870204 179.945993 82.727894 -168.500387 -25.804303 -2.982418 -3.298237 -0.125277 -10.778068 1.649990 -11.806099 -55.653032 17.325146 -71.434709 64.532582 -77.625361 30.901251 6.856451 17.830182 0.009992 -0.116338 0.009092
-78.015177 49.084181 19.208735 178.905059 -30.943102 -3.817286 -1.106129 19.883813 2.004890 -0.180127 2.458523 0.249551 -0.284997 4.034350 0.409215 -1.031566 17.100394 1.633388 3.923821 15.676666 -2.743730 8.264553 -6.410694 -6.518285 -1.187846 -3.655246 -4.519148 4.760231 -8.662797 -12.341213 -38.984069 -48.423524 89.493808 4.296227 5.942038 -12.894503 0.386263 -3.660453 1.885752 -6.905452 -2.244537 13.481470 69.990804 -66.417526 -107.641916 5.454236 9.994442 10.674300 -0.334593 -53.979689 -9.827001 179.884193 82.735830 -168.562543 -25.773487 -2.974632 -3.307106 -0.168741 -10.781349 1.654933 -11.799268 -55.651775 17.361104 -71.477041 64.509242 -77.651302 30.888009 6.865442 17.815465 0.031597 -0.116442 0.021192
-78.015049 49.083627 19.212484 178.906373 -30.945578 -3.816943 -1.106377 19.885666 2.004770 -0.176606 2.458270 0.252012 -0.284412 4.036983 0.410159 -1.028625 17.105180 1.636928 3.930186 15.689716 -2.748716 8.271997 -6.389174 -6.526414 -1.194274 -3.663972 -4.522755 4.755058 -8.639605 -12.358317 -39.015599 -48.431567 89.541205 4.300004 5.937324 -12.902364 0.386015 -3.674373 1.880784 -6.907678 -2.237778 13.475993 69.992167 -66.408560 -107.632893 5.444686 9.998168 10.652664 -0.346247 -53.979953 -9.821560 179.855676 82.741270 -168.593840 -25.780418 -2.967104 -3.306406 -0.177342 -10.785100 1.649884 -11.780757 -55.654231 17.358763 -71.470969 64.502012 -77.649509 30.893553 6.875387 17.823385 0.025658 -0.123669 0.026557
-78.015528 49.082774 19.216197 178.904470 -30.948065 -3.811191 -1.104131 19.887190 2.003726 -0.169257 2.460028 0.256412 -0.289441 4.040073 0.407014 -1.012514 17.115604 1.644030 3.924490 15.694576 -2.754451 8.297915 -6.335280 -6.539018 -1.205599 -3.684624 -4.526511 4.742852 -8.627904 -12.364398 -39.024367 -48.438984 89.563407 4.307638 5.938425 -12.916826 0.367859 -3.691978 1.875885 -6.893179 -2.238335 13.458933 69.964980 -66.409576 -107.605676 5.448718 9.992032 10.637797 -0.352952 -53.981326 -9.822811 179.691960 82.752194 -168.752689 -25.832337 -2.961480 -3.308187 -0.166467 -10.789157 1.641467 -11.764033 -55.654896 17.351443 -71.453602 64.501228 -77.638906 30.909160 6.884259 17.822143 0.008941 -0.132165 0.039399
-78.016658 49.081886 19.219459 178.908341 -30.952811 -3.804735 -1.104721 19.890011 2.000536 -0.171230 2.461689 0.254259 -0.286351 4.042295 0.409727 -1.017627 17.114991 1.641333 3.925690 15.697691 -2.755139 8.322347 -6.284656 -6.545427 -1.186042 -3.688575 -4.533020 4.719573 -8.622807 -12.361498 -39.037837 -48.461144 89.589598 4.313604 5.951294 -12.934798 0.371603 -3.702007 1.868720 -6.874384 -2.233762 13.433418 69.918692 -66.427469 -107.567588 5.463873 9.985747 10.642547 -0.352485 -53.980303 -9.831966 179.667859 82.753903 -168.781432 -25.834691 -2.955373 -3.307580 -0.153412 -10.792065 1.635748 -11.747558 -55.652575 17.338630 -71.431693 64.500316 -77.624589 30.912539 6.893784 17.831463 0.007523 -0.135271 0.036353
-78.016831 49.080773 19.222877 178.926441 -30.955195 -3.811922 -1.112369 19.891724 2.003758 -0.175328 2.462949 0.253161 -0.279101 4.044627 0.414668 -1.021459 17.117815 1.641252 3.929758 15.711871 -2.757618 8.330233 -6.257727 -6.549458 -1.190709 -3.693927 -4.536299 4.712314 -8.617739 -12.368084 -39.049870 -48.468949 89.609777 4.316173 5.956400 -12.942107 0.376695 -3.711430 1.857752 -6.880331 -2.229387 13.428746 69.898461 -66.426455 -107.537671 5.452911 9.985470 10.647033 -0.373644 -53.979205 -9.827713 179.584354 82.761185 -168.864772 -25.869521 -2.949106 -3.306573 -0.109079 -10.797068 1.624908 -11.742638 -55.652730 17.340872 -71.411518 64.485023 -77.613426 30.913141 6.908279 17.847705 0.013504 -0.134637 0.027995
-78.017007 49.079820 19.225616 178.929220 -30.961612 -3.811776 -1.109180 19.894354 2.006030 -0.176742 2.466432 0.253142 -0.281502 4.044324 0.414165 -1.017904 17.122091 1.649556 3.933550 15.724941 -2.762212 8.341139 -6.225586 -6.556525 -1.185028 -3.696169 -4.543912 4.700215 -8.618491 -12.373479 -39.054146 -48.469390 89.617769 4.320566 5.961307 -12.942570 0.380259 -3.712020 1.843935 -6.883171 -2.231996 13.425514 69.909605 -66.427776 -107.533120 5.442961 9.998645 10.657359 -0.383380 -53.975880 -9.821512 179.562295 82.764589 -168.891227 -25.879623 -2.943934 -3.308077 -0.158194 -10.797334 1.633127 -11.733582 -55.649211 17.338762 -71.406399 64.480678 -77.613475 30.916109 6.913165 17.856001 0.010333 -0.137050 0.027031
-78.016924 49.079146 19.227479 178.929224 -30.971908 -3.812213 -1.107408 19.899521 2.005824 -0.176926 2.470637 0.255558 -0.281225 4.042719 0.412020 -1.017020 17.125025 1.649874 3.941223 15.743140 -2.760689 8.353828 -6.193807 -6.561048 -1.174854 -3.695867 -4.536362 4.686984 -8.622853 -12.386683 -39.047274 -48.472750 89.620914 4.311250 5.959797 -12.941230 0.381172 -3.710648 1.830995 -6.884525 -2.232276 13.435402 69.921872 -66.435013 -107.537453 5.440852 10.007841 10.671771 -0.393502 -53.967668 -9.813491 179.551842 82.765322 -168.908831 -25.862649 -2.941730 -3.313285 -0.181585 -10.796647 1.638345 -11.725475 -55.641154 17.336652 -71.407370 64.477795 -77.616044 30.920241 6.915646 17.859191 0.007873 -0.138135 0.026262
-78.016366 49.078517 19.228808 178.927587 -30.982795 -3.814935 -1.103724 19.904951 2.007566 -0.175156 2.466379 0.254125 -0.281993 4.049575 0.413636 -1.016387 17.127624 1.651278 3.948761 15.760344 -2.762294 8.366334 -6.160226 -6.561246 -1.170870 -3.697538 -4.532885 4.691467 -8.636759 -12.396663 -39.029249 -48.460073 89.599299 4.304315 5.948963 -12.934853 0.379991 -3.708980 1.827682 -6.884328 -2.232776 13.436246 69.937725 -66.444189 -107.543555 5.432138 10.017929 10.684634 -0.401180 -53.957802 -9.802266 179.552323 82.769053 -168.908057 -25.868516 -2.941591 -3.318806 -0.136590 -10.796285 1.631925 -11.719819 -55.630626 17.342722 -71.408744 64.470737 -77.618846 30.920728 6.916920 17.859924 0.010161 -0.134898 0.024979
-78.019891 49.076806 19.230745 178.932215 -30.983460 -3.796623 -1.114067 19.900953 1.983595 -0.175899 2.468965 0.255347 -0.281061 4.050005 0.412926 -1.015197 17.129153 1.653213 3.957351 15.778233 -2.763550 8.375216 -6.128813 -6.558511 -1.169264 -3.699887 -4.529911 4.694845 -8.646733 -12.399404 -39.019951 -48.449630 89.583530 4.303399 5.947128 -12.931786 0.373192 -3.705743 1.823036 -6.883357 -2.230743 13.427731 69.945598 -66.461503 -107.541921 5.418476 10.024823 10.700658 -0.380134 -53.959388 -9.833331 179.537490 82.773083 -168.924860 -25.886529 -2.939841 -3.322085 -0.170655 -10.793209 1.642677 -11.687537 -55.633638 17.312418 -71.398075 64.460810 -77.611823 30.908873 6.893469 17.863693 0.014014 -0.101776 0.023608
-78.020078 49.075666 19.231620 178.936692 -30.988366 -3.798038 -1.114613 19.902768 1.981522 -0.178271 2.470641 0.256307 -0.277717 4.050020 0.411853 -1.013428 17.132465 1.651440 3.963801 15.794465 -2.760811 8.381429 -6.101563 -6.550912 -1.171715 -3.705914 -4.519958 4.698162 -8.649557 -12.397662 -39.009711 -48.445536 89.563411 4.302850 5.945812 -12.920482 0.361769 -3.698180 1.823433 -6.878601 -2.239221 13.426368 69.961799 -66.478421 -107.544248 5.420394 10.030154 10.701957 -0.396319 -53.957233 -9.821452 179.592999 82.771190 -168.877817 -25.881728 -2.940052 -3.325130 -0.190303 -10.791712 1.648361 -11.685588 -55.628603 17.311036 -71.388604 64.455722 -77.602074 30.910935 6.899255 17.865455 0.013863 -0.099934 0.020916
